<?xml version="1.0" standalone="no"?>
<!DOCTYPE svg PUBLIC "-//W3C//DTD SVG 20010904//EN"
 "http://www.w3.org/TR/2001/REC-SVG-20010904/DTD/svg10.dtd">
<svg version="1.0" xmlns="http://www.w3.org/2000/svg"
 width="500.000000pt" height="500.000000pt" viewBox="0 0 500.000000 500.000000"
 preserveAspectRatio="xMidYMid meet">

<g transform="translate(0.000000,500.000000) scale(0.100000,-0.100000)"
fill="#cbe0e7" stroke="none">
<path d="M2280 3554 c-85 -17 -221 -77 -283 -125 -23 -18 -69 -59 -102 -91
l-60 -58 -607 -2 -606 -3 70 -87 70 -88 617 0 617 0 46 54 c170 195 467 238
684 98 32 -21 82 -64 110 -95 l51 -57 618 2 619 3 70 85 69 85 -608 3 -608 2
-86 83 c-94 89 -200 150 -316 182 -86 23 -272 28 -365 9z"/>
<path d="M2116 3034 c-17 -17 -21 -51 -8 -72 7 -9 81 -12 338 -10 l329 3 3 33
c6 63 12 62 -334 62 -271 0 -315 -2 -328 -16z"/>
<path d="M870 2974 c0 -3 18 -28 41 -55 l41 -49 483 0 482 0 7 39 c3 22 9 46
12 55 6 15 -44 16 -530 16 -295 0 -536 -3 -536 -6z"/>
<path d="M2950 2953 c4 -16 11 -40 14 -55 l6 -28 481 0 480 0 27 32 c15 17 35
42 45 55 l18 23 -540 0 -540 0 9 -27z"/>
<path d="M2107 2843 c-13 -12 -8 -238 6 -256 11 -16 40 -17 337 -15 l325 3 3
138 3 137 -334 0 c-184 0 -337 -3 -340 -7z m332 -142 c8 -5 11 -16 8 -25 -5
-13 -26 -16 -127 -16 -101 0 -122 3 -127 16 -10 27 17 34 127 34 58 0 111 -4
119 -9z"/>
<path d="M1096 2690 l47 -60 400 0 399 0 -6 23 c-3 12 -9 39 -12 60 l-7 37
-434 0 -434 0 47 -60z"/>
<path d="M2967 2736 c-3 -7 -9 -34 -12 -60 l-7 -46 394 0 395 0 40 48 c21 26
43 53 47 60 6 9 -81 12 -422 12 -355 0 -431 -2 -435 -14z"/>
<path d="M1289 2480 c53 -45 189 -109 266 -125 39 -8 116 -15 173 -15 l104 0
60 -61 c135 -134 285 -208 466 -228 236 -26 461 56 632 230 l58 59 104 0 c56
0 135 7 173 15 79 17 213 79 265 124 l35 30 -377 1 c-208 0 -378 -4 -378 -8 0
-4 -26 -35 -59 -68 -206 -209 -549 -203 -751 12 l-59 64 -373 0 -373 -1 34
-29z"/>
</g>
</svg>
